<mxfile host="app.diagrams.net" modified="2021-02-03T20:22:53.833Z" agent="5.0 (X11; Linux x86_64) AppleWebKit/537.36 (KHTML, like Gecko) Chrome/87.0.4280.66 Safari/537.36" etag="FpiiLlcW0rAewRT1kAwm" version="14.2.9" type="github">
  <diagram id="cmkfRdttU-RUWBS00P9l" name="Page-1">
    <mxGraphModel dx="2508" dy="1843" grid="1" gridSize="10" guides="1" tooltips="1" connect="1" arrows="1" fold="1" page="1" pageScale="1" pageWidth="250" pageHeight="500" math="0" shadow="0">
      <root>
        <mxCell id="0" />
        <mxCell id="1" parent="0" />
        <mxCell id="q8i4rqkoNAQlJly2SuZi-1" value="user" style="shape=table;startSize=30;container=1;collapsible=1;childLayout=tableLayout;fixedRows=1;rowLines=0;fontStyle=1;align=center;resizeLast=1;" vertex="1" parent="1">
          <mxGeometry x="200" y="-143" width="180" height="160" as="geometry" />
        </mxCell>
        <mxCell id="q8i4rqkoNAQlJly2SuZi-2" value="" style="shape=partialRectangle;collapsible=0;dropTarget=0;pointerEvents=0;fillColor=none;top=0;left=0;bottom=1;right=0;points=[[0,0.5],[1,0.5]];portConstraint=eastwest;" vertex="1" parent="q8i4rqkoNAQlJly2SuZi-1">
          <mxGeometry y="30" width="180" height="30" as="geometry" />
        </mxCell>
        <mxCell id="q8i4rqkoNAQlJly2SuZi-3" value="PK" style="shape=partialRectangle;connectable=0;fillColor=none;top=0;left=0;bottom=0;right=0;fontStyle=1;overflow=hidden;" vertex="1" parent="q8i4rqkoNAQlJly2SuZi-2">
          <mxGeometry width="30" height="30" as="geometry" />
        </mxCell>
        <mxCell id="q8i4rqkoNAQlJly2SuZi-4" value="user_id" style="shape=partialRectangle;connectable=0;fillColor=none;top=0;left=0;bottom=0;right=0;align=left;spacingLeft=6;fontStyle=5;overflow=hidden;" vertex="1" parent="q8i4rqkoNAQlJly2SuZi-2">
          <mxGeometry x="30" width="150" height="30" as="geometry" />
        </mxCell>
        <mxCell id="q8i4rqkoNAQlJly2SuZi-5" value="" style="shape=partialRectangle;collapsible=0;dropTarget=0;pointerEvents=0;fillColor=none;top=0;left=0;bottom=0;right=0;points=[[0,0.5],[1,0.5]];portConstraint=eastwest;" vertex="1" parent="q8i4rqkoNAQlJly2SuZi-1">
          <mxGeometry y="60" width="180" height="30" as="geometry" />
        </mxCell>
        <mxCell id="q8i4rqkoNAQlJly2SuZi-6" value="" style="shape=partialRectangle;connectable=0;fillColor=none;top=0;left=0;bottom=0;right=0;editable=1;overflow=hidden;" vertex="1" parent="q8i4rqkoNAQlJly2SuZi-5">
          <mxGeometry width="30" height="30" as="geometry" />
        </mxCell>
        <mxCell id="q8i4rqkoNAQlJly2SuZi-7" value="id" style="shape=partialRectangle;connectable=0;fillColor=none;top=0;left=0;bottom=0;right=0;align=left;spacingLeft=6;overflow=hidden;" vertex="1" parent="q8i4rqkoNAQlJly2SuZi-5">
          <mxGeometry x="30" width="150" height="30" as="geometry" />
        </mxCell>
        <mxCell id="q8i4rqkoNAQlJly2SuZi-8" value="" style="shape=partialRectangle;collapsible=0;dropTarget=0;pointerEvents=0;fillColor=none;top=0;left=0;bottom=0;right=0;points=[[0,0.5],[1,0.5]];portConstraint=eastwest;" vertex="1" parent="q8i4rqkoNAQlJly2SuZi-1">
          <mxGeometry y="90" width="180" height="30" as="geometry" />
        </mxCell>
        <mxCell id="q8i4rqkoNAQlJly2SuZi-9" value="" style="shape=partialRectangle;connectable=0;fillColor=none;top=0;left=0;bottom=0;right=0;editable=1;overflow=hidden;" vertex="1" parent="q8i4rqkoNAQlJly2SuZi-8">
          <mxGeometry width="30" height="30" as="geometry" />
        </mxCell>
        <mxCell id="q8i4rqkoNAQlJly2SuZi-10" value="pw" style="shape=partialRectangle;connectable=0;fillColor=none;top=0;left=0;bottom=0;right=0;align=left;spacingLeft=6;overflow=hidden;" vertex="1" parent="q8i4rqkoNAQlJly2SuZi-8">
          <mxGeometry x="30" width="150" height="30" as="geometry" />
        </mxCell>
        <mxCell id="q8i4rqkoNAQlJly2SuZi-11" value="" style="shape=partialRectangle;collapsible=0;dropTarget=0;pointerEvents=0;fillColor=none;top=0;left=0;bottom=0;right=0;points=[[0,0.5],[1,0.5]];portConstraint=eastwest;" vertex="1" parent="q8i4rqkoNAQlJly2SuZi-1">
          <mxGeometry y="120" width="180" height="30" as="geometry" />
        </mxCell>
        <mxCell id="q8i4rqkoNAQlJly2SuZi-12" value="" style="shape=partialRectangle;connectable=0;fillColor=none;top=0;left=0;bottom=0;right=0;editable=1;overflow=hidden;" vertex="1" parent="q8i4rqkoNAQlJly2SuZi-11">
          <mxGeometry width="30" height="30" as="geometry" />
        </mxCell>
        <mxCell id="q8i4rqkoNAQlJly2SuZi-13" value="name" style="shape=partialRectangle;connectable=0;fillColor=none;top=0;left=0;bottom=0;right=0;align=left;spacingLeft=6;overflow=hidden;" vertex="1" parent="q8i4rqkoNAQlJly2SuZi-11">
          <mxGeometry x="30" width="150" height="30" as="geometry" />
        </mxCell>
        <mxCell id="q8i4rqkoNAQlJly2SuZi-14" value="topic" style="shape=table;startSize=30;container=1;collapsible=1;childLayout=tableLayout;fixedRows=1;rowLines=0;fontStyle=1;align=center;resizeLast=1;" vertex="1" parent="1">
          <mxGeometry x="200" y="-420" width="180" height="160" as="geometry" />
        </mxCell>
        <mxCell id="q8i4rqkoNAQlJly2SuZi-15" value="" style="shape=partialRectangle;collapsible=0;dropTarget=0;pointerEvents=0;fillColor=none;top=0;left=0;bottom=1;right=0;points=[[0,0.5],[1,0.5]];portConstraint=eastwest;" vertex="1" parent="q8i4rqkoNAQlJly2SuZi-14">
          <mxGeometry y="30" width="180" height="30" as="geometry" />
        </mxCell>
        <mxCell id="q8i4rqkoNAQlJly2SuZi-16" value="PK" style="shape=partialRectangle;connectable=0;fillColor=none;top=0;left=0;bottom=0;right=0;fontStyle=1;overflow=hidden;" vertex="1" parent="q8i4rqkoNAQlJly2SuZi-15">
          <mxGeometry width="30" height="30" as="geometry" />
        </mxCell>
        <mxCell id="q8i4rqkoNAQlJly2SuZi-17" value="topic_id" style="shape=partialRectangle;connectable=0;fillColor=none;top=0;left=0;bottom=0;right=0;align=left;spacingLeft=6;fontStyle=5;overflow=hidden;" vertex="1" parent="q8i4rqkoNAQlJly2SuZi-15">
          <mxGeometry x="30" width="150" height="30" as="geometry" />
        </mxCell>
        <mxCell id="q8i4rqkoNAQlJly2SuZi-18" value="" style="shape=partialRectangle;collapsible=0;dropTarget=0;pointerEvents=0;fillColor=none;top=0;left=0;bottom=0;right=0;points=[[0,0.5],[1,0.5]];portConstraint=eastwest;" vertex="1" parent="q8i4rqkoNAQlJly2SuZi-14">
          <mxGeometry y="60" width="180" height="30" as="geometry" />
        </mxCell>
        <mxCell id="q8i4rqkoNAQlJly2SuZi-19" value="FK" style="shape=partialRectangle;connectable=0;fillColor=none;top=0;left=0;bottom=0;right=0;editable=1;overflow=hidden;" vertex="1" parent="q8i4rqkoNAQlJly2SuZi-18">
          <mxGeometry width="30" height="30" as="geometry" />
        </mxCell>
        <mxCell id="q8i4rqkoNAQlJly2SuZi-20" value="user_id" style="shape=partialRectangle;connectable=0;fillColor=none;top=0;left=0;bottom=0;right=0;align=left;spacingLeft=6;overflow=hidden;" vertex="1" parent="q8i4rqkoNAQlJly2SuZi-18">
          <mxGeometry x="30" width="150" height="30" as="geometry" />
        </mxCell>
        <mxCell id="q8i4rqkoNAQlJly2SuZi-21" value="" style="shape=partialRectangle;collapsible=0;dropTarget=0;pointerEvents=0;fillColor=none;top=0;left=0;bottom=0;right=0;points=[[0,0.5],[1,0.5]];portConstraint=eastwest;" vertex="1" parent="q8i4rqkoNAQlJly2SuZi-14">
          <mxGeometry y="90" width="180" height="30" as="geometry" />
        </mxCell>
        <mxCell id="q8i4rqkoNAQlJly2SuZi-22" value="" style="shape=partialRectangle;connectable=0;fillColor=none;top=0;left=0;bottom=0;right=0;editable=1;overflow=hidden;" vertex="1" parent="q8i4rqkoNAQlJly2SuZi-21">
          <mxGeometry width="30" height="30" as="geometry" />
        </mxCell>
        <mxCell id="q8i4rqkoNAQlJly2SuZi-23" value="name" style="shape=partialRectangle;connectable=0;fillColor=none;top=0;left=0;bottom=0;right=0;align=left;spacingLeft=6;overflow=hidden;" vertex="1" parent="q8i4rqkoNAQlJly2SuZi-21">
          <mxGeometry x="30" width="150" height="30" as="geometry" />
        </mxCell>
        <mxCell id="q8i4rqkoNAQlJly2SuZi-24" value="" style="shape=partialRectangle;collapsible=0;dropTarget=0;pointerEvents=0;fillColor=none;top=0;left=0;bottom=0;right=0;points=[[0,0.5],[1,0.5]];portConstraint=eastwest;" vertex="1" parent="q8i4rqkoNAQlJly2SuZi-14">
          <mxGeometry y="120" width="180" height="30" as="geometry" />
        </mxCell>
        <mxCell id="q8i4rqkoNAQlJly2SuZi-25" value="FK" style="shape=partialRectangle;connectable=0;fillColor=none;top=0;left=0;bottom=0;right=0;editable=1;overflow=hidden;" vertex="1" parent="q8i4rqkoNAQlJly2SuZi-24">
          <mxGeometry width="30" height="30" as="geometry" />
        </mxCell>
        <mxCell id="q8i4rqkoNAQlJly2SuZi-26" value="topic_status_id" style="shape=partialRectangle;connectable=0;fillColor=none;top=0;left=0;bottom=0;right=0;align=left;spacingLeft=6;overflow=hidden;" vertex="1" parent="q8i4rqkoNAQlJly2SuZi-24">
          <mxGeometry x="30" width="150" height="30" as="geometry" />
        </mxCell>
        <mxCell id="q8i4rqkoNAQlJly2SuZi-27" value="topic_status" style="shape=table;startSize=30;container=1;collapsible=1;childLayout=tableLayout;fixedRows=1;rowLines=0;fontStyle=1;align=center;resizeLast=1;" vertex="1" parent="1">
          <mxGeometry x="-90" y="-390" width="180" height="90" as="geometry" />
        </mxCell>
        <mxCell id="q8i4rqkoNAQlJly2SuZi-28" value="" style="shape=partialRectangle;collapsible=0;dropTarget=0;pointerEvents=0;fillColor=none;top=0;left=0;bottom=1;right=0;points=[[0,0.5],[1,0.5]];portConstraint=eastwest;" vertex="1" parent="q8i4rqkoNAQlJly2SuZi-27">
          <mxGeometry y="30" width="180" height="30" as="geometry" />
        </mxCell>
        <mxCell id="q8i4rqkoNAQlJly2SuZi-29" value="PK" style="shape=partialRectangle;connectable=0;fillColor=none;top=0;left=0;bottom=0;right=0;fontStyle=1;overflow=hidden;" vertex="1" parent="q8i4rqkoNAQlJly2SuZi-28">
          <mxGeometry width="30" height="30" as="geometry" />
        </mxCell>
        <mxCell id="q8i4rqkoNAQlJly2SuZi-30" value="status_id" style="shape=partialRectangle;connectable=0;fillColor=none;top=0;left=0;bottom=0;right=0;align=left;spacingLeft=6;fontStyle=5;overflow=hidden;" vertex="1" parent="q8i4rqkoNAQlJly2SuZi-28">
          <mxGeometry x="30" width="150" height="30" as="geometry" />
        </mxCell>
        <mxCell id="q8i4rqkoNAQlJly2SuZi-31" value="" style="shape=partialRectangle;collapsible=0;dropTarget=0;pointerEvents=0;fillColor=none;top=0;left=0;bottom=0;right=0;points=[[0,0.5],[1,0.5]];portConstraint=eastwest;" vertex="1" parent="q8i4rqkoNAQlJly2SuZi-27">
          <mxGeometry y="60" width="180" height="30" as="geometry" />
        </mxCell>
        <mxCell id="q8i4rqkoNAQlJly2SuZi-32" value="" style="shape=partialRectangle;connectable=0;fillColor=none;top=0;left=0;bottom=0;right=0;editable=1;overflow=hidden;" vertex="1" parent="q8i4rqkoNAQlJly2SuZi-31">
          <mxGeometry width="30" height="30" as="geometry" />
        </mxCell>
        <mxCell id="q8i4rqkoNAQlJly2SuZi-33" value="name" style="shape=partialRectangle;connectable=0;fillColor=none;top=0;left=0;bottom=0;right=0;align=left;spacingLeft=6;overflow=hidden;" vertex="1" parent="q8i4rqkoNAQlJly2SuZi-31">
          <mxGeometry x="30" width="150" height="30" as="geometry" />
        </mxCell>
        <mxCell id="q8i4rqkoNAQlJly2SuZi-44" value="" style="endArrow=none;html=1;rounded=0;exitX=0.5;exitY=0;exitDx=0;exitDy=0;entryX=0.5;entryY=1;entryDx=0;entryDy=0;" edge="1" parent="1" source="q8i4rqkoNAQlJly2SuZi-1" target="q8i4rqkoNAQlJly2SuZi-14">
          <mxGeometry relative="1" as="geometry">
            <mxPoint x="380" y="-43" as="sourcePoint" />
            <mxPoint x="530" y="-43" as="targetPoint" />
          </mxGeometry>
        </mxCell>
        <mxCell id="q8i4rqkoNAQlJly2SuZi-45" value="" style="endArrow=none;html=1;rounded=0;exitX=1;exitY=0.5;exitDx=0;exitDy=0;entryX=0;entryY=0.5;entryDx=0;entryDy=0;" edge="1" parent="1" source="q8i4rqkoNAQlJly2SuZi-28" target="q8i4rqkoNAQlJly2SuZi-18">
          <mxGeometry relative="1" as="geometry">
            <mxPoint x="210" y="-153" as="sourcePoint" />
            <mxPoint x="370" y="-153" as="targetPoint" />
          </mxGeometry>
        </mxCell>
        <mxCell id="q8i4rqkoNAQlJly2SuZi-46" value="filter" style="shape=table;startSize=30;container=1;collapsible=1;childLayout=tableLayout;fixedRows=1;rowLines=0;fontStyle=1;align=center;resizeLast=1;" vertex="1" parent="1">
          <mxGeometry x="590" y="-420" width="180" height="190" as="geometry" />
        </mxCell>
        <mxCell id="q8i4rqkoNAQlJly2SuZi-47" value="" style="shape=partialRectangle;collapsible=0;dropTarget=0;pointerEvents=0;fillColor=none;top=0;left=0;bottom=1;right=0;points=[[0,0.5],[1,0.5]];portConstraint=eastwest;" vertex="1" parent="q8i4rqkoNAQlJly2SuZi-46">
          <mxGeometry y="30" width="180" height="30" as="geometry" />
        </mxCell>
        <mxCell id="q8i4rqkoNAQlJly2SuZi-48" value="PK" style="shape=partialRectangle;connectable=0;fillColor=none;top=0;left=0;bottom=0;right=0;fontStyle=1;overflow=hidden;" vertex="1" parent="q8i4rqkoNAQlJly2SuZi-47">
          <mxGeometry width="30" height="30" as="geometry" />
        </mxCell>
        <mxCell id="q8i4rqkoNAQlJly2SuZi-49" value="filter_id" style="shape=partialRectangle;connectable=0;fillColor=none;top=0;left=0;bottom=0;right=0;align=left;spacingLeft=6;fontStyle=5;overflow=hidden;" vertex="1" parent="q8i4rqkoNAQlJly2SuZi-47">
          <mxGeometry x="30" width="150" height="30" as="geometry" />
        </mxCell>
        <mxCell id="q8i4rqkoNAQlJly2SuZi-50" value="" style="shape=partialRectangle;collapsible=0;dropTarget=0;pointerEvents=0;fillColor=none;top=0;left=0;bottom=0;right=0;points=[[0,0.5],[1,0.5]];portConstraint=eastwest;" vertex="1" parent="q8i4rqkoNAQlJly2SuZi-46">
          <mxGeometry y="60" width="180" height="30" as="geometry" />
        </mxCell>
        <mxCell id="q8i4rqkoNAQlJly2SuZi-51" value="FK" style="shape=partialRectangle;connectable=0;fillColor=none;top=0;left=0;bottom=0;right=0;editable=1;overflow=hidden;" vertex="1" parent="q8i4rqkoNAQlJly2SuZi-50">
          <mxGeometry width="30" height="30" as="geometry" />
        </mxCell>
        <mxCell id="q8i4rqkoNAQlJly2SuZi-52" value="topic_id" style="shape=partialRectangle;connectable=0;fillColor=none;top=0;left=0;bottom=0;right=0;align=left;spacingLeft=6;overflow=hidden;" vertex="1" parent="q8i4rqkoNAQlJly2SuZi-50">
          <mxGeometry x="30" width="150" height="30" as="geometry" />
        </mxCell>
        <mxCell id="q8i4rqkoNAQlJly2SuZi-53" value="" style="shape=partialRectangle;collapsible=0;dropTarget=0;pointerEvents=0;fillColor=none;top=0;left=0;bottom=0;right=0;points=[[0,0.5],[1,0.5]];portConstraint=eastwest;" vertex="1" parent="q8i4rqkoNAQlJly2SuZi-46">
          <mxGeometry y="90" width="180" height="30" as="geometry" />
        </mxCell>
        <mxCell id="q8i4rqkoNAQlJly2SuZi-54" value="" style="shape=partialRectangle;connectable=0;fillColor=none;top=0;left=0;bottom=0;right=0;editable=1;overflow=hidden;" vertex="1" parent="q8i4rqkoNAQlJly2SuZi-53">
          <mxGeometry width="30" height="30" as="geometry" />
        </mxCell>
        <mxCell id="q8i4rqkoNAQlJly2SuZi-55" value="field" style="shape=partialRectangle;connectable=0;fillColor=none;top=0;left=0;bottom=0;right=0;align=left;spacingLeft=6;overflow=hidden;" vertex="1" parent="q8i4rqkoNAQlJly2SuZi-53">
          <mxGeometry x="30" width="150" height="30" as="geometry" />
        </mxCell>
        <mxCell id="q8i4rqkoNAQlJly2SuZi-56" value="" style="shape=partialRectangle;collapsible=0;dropTarget=0;pointerEvents=0;fillColor=none;top=0;left=0;bottom=0;right=0;points=[[0,0.5],[1,0.5]];portConstraint=eastwest;" vertex="1" parent="q8i4rqkoNAQlJly2SuZi-46">
          <mxGeometry y="120" width="180" height="30" as="geometry" />
        </mxCell>
        <mxCell id="q8i4rqkoNAQlJly2SuZi-57" value="" style="shape=partialRectangle;connectable=0;fillColor=none;top=0;left=0;bottom=0;right=0;editable=1;overflow=hidden;" vertex="1" parent="q8i4rqkoNAQlJly2SuZi-56">
          <mxGeometry width="30" height="30" as="geometry" />
        </mxCell>
        <mxCell id="q8i4rqkoNAQlJly2SuZi-58" value="accessed_time" style="shape=partialRectangle;connectable=0;fillColor=none;top=0;left=0;bottom=0;right=0;align=left;spacingLeft=6;overflow=hidden;" vertex="1" parent="q8i4rqkoNAQlJly2SuZi-56">
          <mxGeometry x="30" width="150" height="30" as="geometry" />
        </mxCell>
        <mxCell id="q8i4rqkoNAQlJly2SuZi-60" value="" style="shape=partialRectangle;collapsible=0;dropTarget=0;pointerEvents=0;fillColor=none;top=0;left=0;bottom=0;right=0;points=[[0,0.5],[1,0.5]];portConstraint=eastwest;" vertex="1" parent="q8i4rqkoNAQlJly2SuZi-46">
          <mxGeometry y="150" width="180" height="30" as="geometry" />
        </mxCell>
        <mxCell id="q8i4rqkoNAQlJly2SuZi-61" value="" style="shape=partialRectangle;connectable=0;fillColor=none;top=0;left=0;bottom=0;right=0;editable=1;overflow=hidden;" vertex="1" parent="q8i4rqkoNAQlJly2SuZi-60">
          <mxGeometry width="30" height="30" as="geometry" />
        </mxCell>
        <mxCell id="q8i4rqkoNAQlJly2SuZi-62" value="created_time" style="shape=partialRectangle;connectable=0;fillColor=none;top=0;left=0;bottom=0;right=0;align=left;spacingLeft=6;overflow=hidden;" vertex="1" parent="q8i4rqkoNAQlJly2SuZi-60">
          <mxGeometry x="30" width="150" height="30" as="geometry" />
        </mxCell>
        <mxCell id="q8i4rqkoNAQlJly2SuZi-59" value="" style="endArrow=none;html=1;rounded=0;exitX=1;exitY=0.5;exitDx=0;exitDy=0;entryX=0;entryY=0.5;entryDx=0;entryDy=0;" edge="1" parent="1" source="q8i4rqkoNAQlJly2SuZi-18" target="q8i4rqkoNAQlJly2SuZi-50">
          <mxGeometry relative="1" as="geometry">
            <mxPoint x="730" y="-43" as="sourcePoint" />
            <mxPoint x="880" y="-43" as="targetPoint" />
          </mxGeometry>
        </mxCell>
        <mxCell id="q8i4rqkoNAQlJly2SuZi-63" value="" style="endArrow=none;html=1;rounded=0;entryX=0.5;entryY=0;entryDx=0;entryDy=0;exitX=0.5;exitY=1;exitDx=0;exitDy=0;" edge="1" parent="1" source="q8i4rqkoNAQlJly2SuZi-1" target="q8i4rqkoNAQlJly2SuZi-64">
          <mxGeometry relative="1" as="geometry">
            <mxPoint x="610" y="17" as="sourcePoint" />
            <mxPoint x="620" y="127" as="targetPoint" />
          </mxGeometry>
        </mxCell>
        <mxCell id="q8i4rqkoNAQlJly2SuZi-64" value="datasource" style="shape=table;startSize=30;container=1;collapsible=1;childLayout=tableLayout;fixedRows=1;rowLines=0;fontStyle=1;align=center;resizeLast=1;" vertex="1" parent="1">
          <mxGeometry x="200" y="158" width="180" height="160" as="geometry" />
        </mxCell>
        <mxCell id="q8i4rqkoNAQlJly2SuZi-65" value="" style="shape=partialRectangle;collapsible=0;dropTarget=0;pointerEvents=0;fillColor=none;top=0;left=0;bottom=1;right=0;points=[[0,0.5],[1,0.5]];portConstraint=eastwest;" vertex="1" parent="q8i4rqkoNAQlJly2SuZi-64">
          <mxGeometry y="30" width="180" height="30" as="geometry" />
        </mxCell>
        <mxCell id="q8i4rqkoNAQlJly2SuZi-66" value="PK" style="shape=partialRectangle;connectable=0;fillColor=none;top=0;left=0;bottom=0;right=0;fontStyle=1;overflow=hidden;" vertex="1" parent="q8i4rqkoNAQlJly2SuZi-65">
          <mxGeometry width="30" height="30" as="geometry" />
        </mxCell>
        <mxCell id="q8i4rqkoNAQlJly2SuZi-67" value="datasource_id" style="shape=partialRectangle;connectable=0;fillColor=none;top=0;left=0;bottom=0;right=0;align=left;spacingLeft=6;fontStyle=5;overflow=hidden;" vertex="1" parent="q8i4rqkoNAQlJly2SuZi-65">
          <mxGeometry x="30" width="150" height="30" as="geometry" />
        </mxCell>
        <mxCell id="q8i4rqkoNAQlJly2SuZi-68" value="" style="shape=partialRectangle;collapsible=0;dropTarget=0;pointerEvents=0;fillColor=none;top=0;left=0;bottom=0;right=0;points=[[0,0.5],[1,0.5]];portConstraint=eastwest;" vertex="1" parent="q8i4rqkoNAQlJly2SuZi-64">
          <mxGeometry y="60" width="180" height="30" as="geometry" />
        </mxCell>
        <mxCell id="q8i4rqkoNAQlJly2SuZi-69" value="FK" style="shape=partialRectangle;connectable=0;fillColor=none;top=0;left=0;bottom=0;right=0;editable=1;overflow=hidden;" vertex="1" parent="q8i4rqkoNAQlJly2SuZi-68">
          <mxGeometry width="30" height="30" as="geometry" />
        </mxCell>
        <mxCell id="q8i4rqkoNAQlJly2SuZi-70" value="user_id" style="shape=partialRectangle;connectable=0;fillColor=none;top=0;left=0;bottom=0;right=0;align=left;spacingLeft=6;overflow=hidden;" vertex="1" parent="q8i4rqkoNAQlJly2SuZi-68">
          <mxGeometry x="30" width="150" height="30" as="geometry" />
        </mxCell>
        <mxCell id="q8i4rqkoNAQlJly2SuZi-71" value="" style="shape=partialRectangle;collapsible=0;dropTarget=0;pointerEvents=0;fillColor=none;top=0;left=0;bottom=0;right=0;points=[[0,0.5],[1,0.5]];portConstraint=eastwest;" vertex="1" parent="q8i4rqkoNAQlJly2SuZi-64">
          <mxGeometry y="90" width="180" height="30" as="geometry" />
        </mxCell>
        <mxCell id="q8i4rqkoNAQlJly2SuZi-72" value="" style="shape=partialRectangle;connectable=0;fillColor=none;top=0;left=0;bottom=0;right=0;editable=1;overflow=hidden;" vertex="1" parent="q8i4rqkoNAQlJly2SuZi-71">
          <mxGeometry width="30" height="30" as="geometry" />
        </mxCell>
        <mxCell id="q8i4rqkoNAQlJly2SuZi-73" value="name" style="shape=partialRectangle;connectable=0;fillColor=none;top=0;left=0;bottom=0;right=0;align=left;spacingLeft=6;overflow=hidden;" vertex="1" parent="q8i4rqkoNAQlJly2SuZi-71">
          <mxGeometry x="30" width="150" height="30" as="geometry" />
        </mxCell>
        <mxCell id="q8i4rqkoNAQlJly2SuZi-74" value="" style="shape=partialRectangle;collapsible=0;dropTarget=0;pointerEvents=0;fillColor=none;top=0;left=0;bottom=0;right=0;points=[[0,0.5],[1,0.5]];portConstraint=eastwest;" vertex="1" parent="q8i4rqkoNAQlJly2SuZi-64">
          <mxGeometry y="120" width="180" height="30" as="geometry" />
        </mxCell>
        <mxCell id="q8i4rqkoNAQlJly2SuZi-75" value="" style="shape=partialRectangle;connectable=0;fillColor=none;top=0;left=0;bottom=0;right=0;editable=1;overflow=hidden;" vertex="1" parent="q8i4rqkoNAQlJly2SuZi-74">
          <mxGeometry width="30" height="30" as="geometry" />
        </mxCell>
        <mxCell id="q8i4rqkoNAQlJly2SuZi-76" value="latest_data" style="shape=partialRectangle;connectable=0;fillColor=none;top=0;left=0;bottom=0;right=0;align=left;spacingLeft=6;overflow=hidden;" vertex="1" parent="q8i4rqkoNAQlJly2SuZi-74">
          <mxGeometry x="30" width="150" height="30" as="geometry" />
        </mxCell>
        <mxCell id="q8i4rqkoNAQlJly2SuZi-104" value="datacube" style="shape=table;startSize=30;container=1;collapsible=1;childLayout=tableLayout;fixedRows=1;rowLines=0;fontStyle=1;align=center;resizeLast=1;" vertex="1" parent="1">
          <mxGeometry x="530" y="157" width="180" height="160" as="geometry" />
        </mxCell>
        <mxCell id="q8i4rqkoNAQlJly2SuZi-105" value="" style="shape=partialRectangle;collapsible=0;dropTarget=0;pointerEvents=0;fillColor=none;top=0;left=0;bottom=1;right=0;points=[[0,0.5],[1,0.5]];portConstraint=eastwest;" vertex="1" parent="q8i4rqkoNAQlJly2SuZi-104">
          <mxGeometry y="30" width="180" height="30" as="geometry" />
        </mxCell>
        <mxCell id="q8i4rqkoNAQlJly2SuZi-106" value="PK" style="shape=partialRectangle;connectable=0;fillColor=none;top=0;left=0;bottom=0;right=0;fontStyle=1;overflow=hidden;" vertex="1" parent="q8i4rqkoNAQlJly2SuZi-105">
          <mxGeometry width="30" height="30" as="geometry" />
        </mxCell>
        <mxCell id="q8i4rqkoNAQlJly2SuZi-107" value="datacube_id" style="shape=partialRectangle;connectable=0;fillColor=none;top=0;left=0;bottom=0;right=0;align=left;spacingLeft=6;fontStyle=5;overflow=hidden;" vertex="1" parent="q8i4rqkoNAQlJly2SuZi-105">
          <mxGeometry x="30" width="150" height="30" as="geometry" />
        </mxCell>
        <mxCell id="q8i4rqkoNAQlJly2SuZi-108" value="" style="shape=partialRectangle;collapsible=0;dropTarget=0;pointerEvents=0;fillColor=none;top=0;left=0;bottom=0;right=0;points=[[0,0.5],[1,0.5]];portConstraint=eastwest;" vertex="1" parent="q8i4rqkoNAQlJly2SuZi-104">
          <mxGeometry y="60" width="180" height="30" as="geometry" />
        </mxCell>
        <mxCell id="q8i4rqkoNAQlJly2SuZi-109" value="FK" style="shape=partialRectangle;connectable=0;fillColor=none;top=0;left=0;bottom=0;right=0;editable=1;overflow=hidden;" vertex="1" parent="q8i4rqkoNAQlJly2SuZi-108">
          <mxGeometry width="30" height="30" as="geometry" />
        </mxCell>
        <mxCell id="q8i4rqkoNAQlJly2SuZi-110" value="datasource_id" style="shape=partialRectangle;connectable=0;fillColor=none;top=0;left=0;bottom=0;right=0;align=left;spacingLeft=6;overflow=hidden;" vertex="1" parent="q8i4rqkoNAQlJly2SuZi-108">
          <mxGeometry x="30" width="150" height="30" as="geometry" />
        </mxCell>
        <mxCell id="q8i4rqkoNAQlJly2SuZi-111" value="" style="shape=partialRectangle;collapsible=0;dropTarget=0;pointerEvents=0;fillColor=none;top=0;left=0;bottom=0;right=0;points=[[0,0.5],[1,0.5]];portConstraint=eastwest;" vertex="1" parent="q8i4rqkoNAQlJly2SuZi-104">
          <mxGeometry y="90" width="180" height="30" as="geometry" />
        </mxCell>
        <mxCell id="q8i4rqkoNAQlJly2SuZi-112" value="" style="shape=partialRectangle;connectable=0;fillColor=none;top=0;left=0;bottom=0;right=0;editable=1;overflow=hidden;" vertex="1" parent="q8i4rqkoNAQlJly2SuZi-111">
          <mxGeometry width="30" height="30" as="geometry" />
        </mxCell>
        <mxCell id="q8i4rqkoNAQlJly2SuZi-113" value="name" style="shape=partialRectangle;connectable=0;fillColor=none;top=0;left=0;bottom=0;right=0;align=left;spacingLeft=6;overflow=hidden;" vertex="1" parent="q8i4rqkoNAQlJly2SuZi-111">
          <mxGeometry x="30" width="150" height="30" as="geometry" />
        </mxCell>
        <mxCell id="q8i4rqkoNAQlJly2SuZi-114" value="" style="shape=partialRectangle;collapsible=0;dropTarget=0;pointerEvents=0;fillColor=none;top=0;left=0;bottom=0;right=0;points=[[0,0.5],[1,0.5]];portConstraint=eastwest;" vertex="1" parent="q8i4rqkoNAQlJly2SuZi-104">
          <mxGeometry y="120" width="180" height="30" as="geometry" />
        </mxCell>
        <mxCell id="q8i4rqkoNAQlJly2SuZi-115" value="" style="shape=partialRectangle;connectable=0;fillColor=none;top=0;left=0;bottom=0;right=0;editable=1;overflow=hidden;" vertex="1" parent="q8i4rqkoNAQlJly2SuZi-114">
          <mxGeometry width="30" height="30" as="geometry" />
        </mxCell>
        <mxCell id="q8i4rqkoNAQlJly2SuZi-116" value="description" style="shape=partialRectangle;connectable=0;fillColor=none;top=0;left=0;bottom=0;right=0;align=left;spacingLeft=6;overflow=hidden;" vertex="1" parent="q8i4rqkoNAQlJly2SuZi-114">
          <mxGeometry x="30" width="150" height="30" as="geometry" />
        </mxCell>
        <mxCell id="q8i4rqkoNAQlJly2SuZi-117" value="attribute" style="shape=table;startSize=30;container=1;collapsible=1;childLayout=tableLayout;fixedRows=1;rowLines=0;fontStyle=1;align=center;resizeLast=1;" vertex="1" parent="1">
          <mxGeometry x="-90" y="157" width="180" height="160" as="geometry" />
        </mxCell>
        <mxCell id="q8i4rqkoNAQlJly2SuZi-118" value="" style="shape=partialRectangle;collapsible=0;dropTarget=0;pointerEvents=0;fillColor=none;top=0;left=0;bottom=1;right=0;points=[[0,0.5],[1,0.5]];portConstraint=eastwest;" vertex="1" parent="q8i4rqkoNAQlJly2SuZi-117">
          <mxGeometry y="30" width="180" height="30" as="geometry" />
        </mxCell>
        <mxCell id="q8i4rqkoNAQlJly2SuZi-119" value="PK" style="shape=partialRectangle;connectable=0;fillColor=none;top=0;left=0;bottom=0;right=0;fontStyle=1;overflow=hidden;" vertex="1" parent="q8i4rqkoNAQlJly2SuZi-118">
          <mxGeometry width="30" height="30" as="geometry" />
        </mxCell>
        <mxCell id="q8i4rqkoNAQlJly2SuZi-120" value="attribute_id" style="shape=partialRectangle;connectable=0;fillColor=none;top=0;left=0;bottom=0;right=0;align=left;spacingLeft=6;fontStyle=5;overflow=hidden;" vertex="1" parent="q8i4rqkoNAQlJly2SuZi-118">
          <mxGeometry x="30" width="150" height="30" as="geometry" />
        </mxCell>
        <mxCell id="q8i4rqkoNAQlJly2SuZi-121" value="" style="shape=partialRectangle;collapsible=0;dropTarget=0;pointerEvents=0;fillColor=none;top=0;left=0;bottom=0;right=0;points=[[0,0.5],[1,0.5]];portConstraint=eastwest;" vertex="1" parent="q8i4rqkoNAQlJly2SuZi-117">
          <mxGeometry y="60" width="180" height="30" as="geometry" />
        </mxCell>
        <mxCell id="q8i4rqkoNAQlJly2SuZi-122" value="FK" style="shape=partialRectangle;connectable=0;fillColor=none;top=0;left=0;bottom=0;right=0;editable=1;overflow=hidden;" vertex="1" parent="q8i4rqkoNAQlJly2SuZi-121">
          <mxGeometry width="30" height="30" as="geometry" />
        </mxCell>
        <mxCell id="q8i4rqkoNAQlJly2SuZi-123" value="datasource_id" style="shape=partialRectangle;connectable=0;fillColor=none;top=0;left=0;bottom=0;right=0;align=left;spacingLeft=6;overflow=hidden;" vertex="1" parent="q8i4rqkoNAQlJly2SuZi-121">
          <mxGeometry x="30" width="150" height="30" as="geometry" />
        </mxCell>
        <mxCell id="q8i4rqkoNAQlJly2SuZi-124" value="" style="shape=partialRectangle;collapsible=0;dropTarget=0;pointerEvents=0;fillColor=none;top=0;left=0;bottom=0;right=0;points=[[0,0.5],[1,0.5]];portConstraint=eastwest;" vertex="1" parent="q8i4rqkoNAQlJly2SuZi-117">
          <mxGeometry y="90" width="180" height="30" as="geometry" />
        </mxCell>
        <mxCell id="q8i4rqkoNAQlJly2SuZi-125" value="" style="shape=partialRectangle;connectable=0;fillColor=none;top=0;left=0;bottom=0;right=0;editable=1;overflow=hidden;" vertex="1" parent="q8i4rqkoNAQlJly2SuZi-124">
          <mxGeometry width="30" height="30" as="geometry" />
        </mxCell>
        <mxCell id="q8i4rqkoNAQlJly2SuZi-126" value="name" style="shape=partialRectangle;connectable=0;fillColor=none;top=0;left=0;bottom=0;right=0;align=left;spacingLeft=6;overflow=hidden;" vertex="1" parent="q8i4rqkoNAQlJly2SuZi-124">
          <mxGeometry x="30" width="150" height="30" as="geometry" />
        </mxCell>
        <mxCell id="q8i4rqkoNAQlJly2SuZi-127" value="" style="shape=partialRectangle;collapsible=0;dropTarget=0;pointerEvents=0;fillColor=none;top=0;left=0;bottom=0;right=0;points=[[0,0.5],[1,0.5]];portConstraint=eastwest;" vertex="1" parent="q8i4rqkoNAQlJly2SuZi-117">
          <mxGeometry y="120" width="180" height="30" as="geometry" />
        </mxCell>
        <mxCell id="q8i4rqkoNAQlJly2SuZi-128" value="FK" style="shape=partialRectangle;connectable=0;fillColor=none;top=0;left=0;bottom=0;right=0;editable=1;overflow=hidden;" vertex="1" parent="q8i4rqkoNAQlJly2SuZi-127">
          <mxGeometry width="30" height="30" as="geometry" />
        </mxCell>
        <mxCell id="q8i4rqkoNAQlJly2SuZi-129" value="attribute_type_id" style="shape=partialRectangle;connectable=0;fillColor=none;top=0;left=0;bottom=0;right=0;align=left;spacingLeft=6;overflow=hidden;" vertex="1" parent="q8i4rqkoNAQlJly2SuZi-127">
          <mxGeometry x="30" width="150" height="30" as="geometry" />
        </mxCell>
        <mxCell id="q8i4rqkoNAQlJly2SuZi-130" value="" style="endArrow=none;html=1;rounded=0;entryX=1;entryY=0.5;entryDx=0;entryDy=0;exitX=0;exitY=0.5;exitDx=0;exitDy=0;" edge="1" parent="1" source="q8i4rqkoNAQlJly2SuZi-68" target="q8i4rqkoNAQlJly2SuZi-121">
          <mxGeometry relative="1" as="geometry">
            <mxPoint x="290" y="317" as="sourcePoint" />
            <mxPoint x="289.5" y="458" as="targetPoint" />
          </mxGeometry>
        </mxCell>
        <mxCell id="q8i4rqkoNAQlJly2SuZi-131" value="attribute_type" style="shape=table;startSize=30;container=1;collapsible=1;childLayout=tableLayout;fixedRows=1;rowLines=0;fontStyle=1;align=center;resizeLast=1;" vertex="1" parent="1">
          <mxGeometry x="-90" y="-53" width="180" height="95" as="geometry" />
        </mxCell>
        <mxCell id="q8i4rqkoNAQlJly2SuZi-132" value="" style="shape=partialRectangle;collapsible=0;dropTarget=0;pointerEvents=0;fillColor=none;top=0;left=0;bottom=1;right=0;points=[[0,0.5],[1,0.5]];portConstraint=eastwest;" vertex="1" parent="q8i4rqkoNAQlJly2SuZi-131">
          <mxGeometry y="30" width="180" height="30" as="geometry" />
        </mxCell>
        <mxCell id="q8i4rqkoNAQlJly2SuZi-133" value="PK" style="shape=partialRectangle;connectable=0;fillColor=none;top=0;left=0;bottom=0;right=0;fontStyle=1;overflow=hidden;" vertex="1" parent="q8i4rqkoNAQlJly2SuZi-132">
          <mxGeometry width="30" height="30" as="geometry" />
        </mxCell>
        <mxCell id="q8i4rqkoNAQlJly2SuZi-134" value="attribute_type_id" style="shape=partialRectangle;connectable=0;fillColor=none;top=0;left=0;bottom=0;right=0;align=left;spacingLeft=6;fontStyle=5;overflow=hidden;" vertex="1" parent="q8i4rqkoNAQlJly2SuZi-132">
          <mxGeometry x="30" width="150" height="30" as="geometry" />
        </mxCell>
        <mxCell id="q8i4rqkoNAQlJly2SuZi-135" value="" style="shape=partialRectangle;collapsible=0;dropTarget=0;pointerEvents=0;fillColor=none;top=0;left=0;bottom=0;right=0;points=[[0,0.5],[1,0.5]];portConstraint=eastwest;" vertex="1" parent="q8i4rqkoNAQlJly2SuZi-131">
          <mxGeometry y="60" width="180" height="30" as="geometry" />
        </mxCell>
        <mxCell id="q8i4rqkoNAQlJly2SuZi-136" value="" style="shape=partialRectangle;connectable=0;fillColor=none;top=0;left=0;bottom=0;right=0;editable=1;overflow=hidden;" vertex="1" parent="q8i4rqkoNAQlJly2SuZi-135">
          <mxGeometry width="30" height="30" as="geometry" />
        </mxCell>
        <mxCell id="q8i4rqkoNAQlJly2SuZi-137" value="name" style="shape=partialRectangle;connectable=0;fillColor=none;top=0;left=0;bottom=0;right=0;align=left;spacingLeft=6;overflow=hidden;" vertex="1" parent="q8i4rqkoNAQlJly2SuZi-135">
          <mxGeometry x="30" width="150" height="30" as="geometry" />
        </mxCell>
        <mxCell id="q8i4rqkoNAQlJly2SuZi-144" value="" style="endArrow=none;html=1;rounded=0;entryX=0.5;entryY=0;entryDx=0;entryDy=0;exitX=0.5;exitY=1;exitDx=0;exitDy=0;" edge="1" parent="1" source="q8i4rqkoNAQlJly2SuZi-131" target="q8i4rqkoNAQlJly2SuZi-117">
          <mxGeometry relative="1" as="geometry">
            <mxPoint x="20" y="37" as="sourcePoint" />
            <mxPoint x="-0.5" y="138" as="targetPoint" />
          </mxGeometry>
        </mxCell>
        <mxCell id="q8i4rqkoNAQlJly2SuZi-145" value="" style="endArrow=none;html=1;rounded=0;entryX=1;entryY=0.5;entryDx=0;entryDy=0;exitX=0;exitY=0.5;exitDx=0;exitDy=0;" edge="1" parent="1" source="q8i4rqkoNAQlJly2SuZi-108" target="q8i4rqkoNAQlJly2SuZi-68">
          <mxGeometry relative="1" as="geometry">
            <mxPoint x="500" y="238.5" as="sourcePoint" />
            <mxPoint x="390" y="237.5" as="targetPoint" />
          </mxGeometry>
        </mxCell>
        <mxCell id="q8i4rqkoNAQlJly2SuZi-159" value="dimension" style="shape=table;startSize=30;container=1;collapsible=1;childLayout=tableLayout;fixedRows=1;rowLines=0;fontStyle=1;align=center;resizeLast=1;" vertex="1" parent="1">
          <mxGeometry x="540" y="-153" width="180" height="191" as="geometry" />
        </mxCell>
        <mxCell id="q8i4rqkoNAQlJly2SuZi-160" value="" style="shape=partialRectangle;collapsible=0;dropTarget=0;pointerEvents=0;fillColor=none;top=0;left=0;bottom=1;right=0;points=[[0,0.5],[1,0.5]];portConstraint=eastwest;" vertex="1" parent="q8i4rqkoNAQlJly2SuZi-159">
          <mxGeometry y="30" width="180" height="30" as="geometry" />
        </mxCell>
        <mxCell id="q8i4rqkoNAQlJly2SuZi-161" value="PK" style="shape=partialRectangle;connectable=0;fillColor=none;top=0;left=0;bottom=0;right=0;fontStyle=1;overflow=hidden;" vertex="1" parent="q8i4rqkoNAQlJly2SuZi-160">
          <mxGeometry width="30" height="30" as="geometry" />
        </mxCell>
        <mxCell id="q8i4rqkoNAQlJly2SuZi-162" value="dimension_id" style="shape=partialRectangle;connectable=0;fillColor=none;top=0;left=0;bottom=0;right=0;align=left;spacingLeft=6;fontStyle=5;overflow=hidden;" vertex="1" parent="q8i4rqkoNAQlJly2SuZi-160">
          <mxGeometry x="30" width="150" height="30" as="geometry" />
        </mxCell>
        <mxCell id="q8i4rqkoNAQlJly2SuZi-163" value="" style="shape=partialRectangle;collapsible=0;dropTarget=0;pointerEvents=0;fillColor=none;top=0;left=0;bottom=0;right=0;points=[[0,0.5],[1,0.5]];portConstraint=eastwest;" vertex="1" parent="q8i4rqkoNAQlJly2SuZi-159">
          <mxGeometry y="60" width="180" height="30" as="geometry" />
        </mxCell>
        <mxCell id="q8i4rqkoNAQlJly2SuZi-164" value="FK" style="shape=partialRectangle;connectable=0;fillColor=none;top=0;left=0;bottom=0;right=0;editable=1;overflow=hidden;" vertex="1" parent="q8i4rqkoNAQlJly2SuZi-163">
          <mxGeometry width="30" height="30" as="geometry" />
        </mxCell>
        <mxCell id="q8i4rqkoNAQlJly2SuZi-165" value="datacube_id" style="shape=partialRectangle;connectable=0;fillColor=none;top=0;left=0;bottom=0;right=0;align=left;spacingLeft=6;overflow=hidden;" vertex="1" parent="q8i4rqkoNAQlJly2SuZi-163">
          <mxGeometry x="30" width="150" height="30" as="geometry" />
        </mxCell>
        <mxCell id="q8i4rqkoNAQlJly2SuZi-166" value="" style="shape=partialRectangle;collapsible=0;dropTarget=0;pointerEvents=0;fillColor=none;top=0;left=0;bottom=0;right=0;points=[[0,0.5],[1,0.5]];portConstraint=eastwest;" vertex="1" parent="q8i4rqkoNAQlJly2SuZi-159">
          <mxGeometry y="90" width="180" height="30" as="geometry" />
        </mxCell>
        <mxCell id="q8i4rqkoNAQlJly2SuZi-167" value="" style="shape=partialRectangle;connectable=0;fillColor=none;top=0;left=0;bottom=0;right=0;editable=1;overflow=hidden;" vertex="1" parent="q8i4rqkoNAQlJly2SuZi-166">
          <mxGeometry width="30" height="30" as="geometry" />
        </mxCell>
        <mxCell id="q8i4rqkoNAQlJly2SuZi-168" value="name" style="shape=partialRectangle;connectable=0;fillColor=none;top=0;left=0;bottom=0;right=0;align=left;spacingLeft=6;overflow=hidden;" vertex="1" parent="q8i4rqkoNAQlJly2SuZi-166">
          <mxGeometry x="30" width="150" height="30" as="geometry" />
        </mxCell>
        <mxCell id="q8i4rqkoNAQlJly2SuZi-169" value="" style="shape=partialRectangle;collapsible=0;dropTarget=0;pointerEvents=0;fillColor=none;top=0;left=0;bottom=0;right=0;points=[[0,0.5],[1,0.5]];portConstraint=eastwest;" vertex="1" parent="q8i4rqkoNAQlJly2SuZi-159">
          <mxGeometry y="120" width="180" height="30" as="geometry" />
        </mxCell>
        <mxCell id="q8i4rqkoNAQlJly2SuZi-170" value="" style="shape=partialRectangle;connectable=0;fillColor=none;top=0;left=0;bottom=0;right=0;editable=1;overflow=hidden;" vertex="1" parent="q8i4rqkoNAQlJly2SuZi-169">
          <mxGeometry width="30" height="30" as="geometry" />
        </mxCell>
        <mxCell id="q8i4rqkoNAQlJly2SuZi-171" value="description" style="shape=partialRectangle;connectable=0;fillColor=none;top=0;left=0;bottom=0;right=0;align=left;spacingLeft=6;overflow=hidden;" vertex="1" parent="q8i4rqkoNAQlJly2SuZi-169">
          <mxGeometry x="30" width="150" height="30" as="geometry" />
        </mxCell>
        <mxCell id="q8i4rqkoNAQlJly2SuZi-202" value="" style="shape=partialRectangle;collapsible=0;dropTarget=0;pointerEvents=0;fillColor=none;top=0;left=0;bottom=0;right=0;points=[[0,0.5],[1,0.5]];portConstraint=eastwest;" vertex="1" parent="q8i4rqkoNAQlJly2SuZi-159">
          <mxGeometry y="150" width="180" height="30" as="geometry" />
        </mxCell>
        <mxCell id="q8i4rqkoNAQlJly2SuZi-203" value="FK" style="shape=partialRectangle;connectable=0;fillColor=none;top=0;left=0;bottom=0;right=0;editable=1;overflow=hidden;" vertex="1" parent="q8i4rqkoNAQlJly2SuZi-202">
          <mxGeometry width="30" height="30" as="geometry" />
        </mxCell>
        <mxCell id="q8i4rqkoNAQlJly2SuZi-204" value="dimension_type_id" style="shape=partialRectangle;connectable=0;fillColor=none;top=0;left=0;bottom=0;right=0;align=left;spacingLeft=6;overflow=hidden;" vertex="1" parent="q8i4rqkoNAQlJly2SuZi-202">
          <mxGeometry x="30" width="150" height="30" as="geometry" />
        </mxCell>
        <mxCell id="q8i4rqkoNAQlJly2SuZi-172" value="" style="endArrow=none;html=1;rounded=0;entryX=0.5;entryY=0;entryDx=0;entryDy=0;" edge="1" parent="1" target="q8i4rqkoNAQlJly2SuZi-104">
          <mxGeometry relative="1" as="geometry">
            <mxPoint x="620" y="37" as="sourcePoint" />
            <mxPoint x="629.5" y="218" as="targetPoint" />
          </mxGeometry>
        </mxCell>
        <mxCell id="q8i4rqkoNAQlJly2SuZi-180" value="dimension_type" style="shape=table;startSize=30;container=1;collapsible=1;childLayout=tableLayout;fixedRows=1;rowLines=0;fontStyle=1;align=center;resizeLast=1;" vertex="1" parent="1">
          <mxGeometry x="870" y="-100" width="180" height="95" as="geometry" />
        </mxCell>
        <mxCell id="q8i4rqkoNAQlJly2SuZi-181" value="" style="shape=partialRectangle;collapsible=0;dropTarget=0;pointerEvents=0;fillColor=none;top=0;left=0;bottom=1;right=0;points=[[0,0.5],[1,0.5]];portConstraint=eastwest;" vertex="1" parent="q8i4rqkoNAQlJly2SuZi-180">
          <mxGeometry y="30" width="180" height="30" as="geometry" />
        </mxCell>
        <mxCell id="q8i4rqkoNAQlJly2SuZi-182" value="PK" style="shape=partialRectangle;connectable=0;fillColor=none;top=0;left=0;bottom=0;right=0;fontStyle=1;overflow=hidden;" vertex="1" parent="q8i4rqkoNAQlJly2SuZi-181">
          <mxGeometry width="30" height="30" as="geometry" />
        </mxCell>
        <mxCell id="q8i4rqkoNAQlJly2SuZi-183" value="dimension_type_id" style="shape=partialRectangle;connectable=0;fillColor=none;top=0;left=0;bottom=0;right=0;align=left;spacingLeft=6;fontStyle=5;overflow=hidden;" vertex="1" parent="q8i4rqkoNAQlJly2SuZi-181">
          <mxGeometry x="30" width="150" height="30" as="geometry" />
        </mxCell>
        <mxCell id="q8i4rqkoNAQlJly2SuZi-184" value="" style="shape=partialRectangle;collapsible=0;dropTarget=0;pointerEvents=0;fillColor=none;top=0;left=0;bottom=0;right=0;points=[[0,0.5],[1,0.5]];portConstraint=eastwest;" vertex="1" parent="q8i4rqkoNAQlJly2SuZi-180">
          <mxGeometry y="60" width="180" height="30" as="geometry" />
        </mxCell>
        <mxCell id="q8i4rqkoNAQlJly2SuZi-185" value="" style="shape=partialRectangle;connectable=0;fillColor=none;top=0;left=0;bottom=0;right=0;editable=1;overflow=hidden;" vertex="1" parent="q8i4rqkoNAQlJly2SuZi-184">
          <mxGeometry width="30" height="30" as="geometry" />
        </mxCell>
        <mxCell id="q8i4rqkoNAQlJly2SuZi-186" value="name" style="shape=partialRectangle;connectable=0;fillColor=none;top=0;left=0;bottom=0;right=0;align=left;spacingLeft=6;overflow=hidden;" vertex="1" parent="q8i4rqkoNAQlJly2SuZi-184">
          <mxGeometry x="30" width="150" height="30" as="geometry" />
        </mxCell>
        <mxCell id="q8i4rqkoNAQlJly2SuZi-187" value="" style="endArrow=none;html=1;rounded=0;entryX=1;entryY=0.5;entryDx=0;entryDy=0;exitX=0.01;exitY=0.711;exitDx=0;exitDy=0;exitPerimeter=0;" edge="1" parent="1" source="q8i4rqkoNAQlJly2SuZi-181" target="q8i4rqkoNAQlJly2SuZi-166">
          <mxGeometry relative="1" as="geometry">
            <mxPoint x="810" y="-43" as="sourcePoint" />
            <mxPoint x="735" y="-37.5" as="targetPoint" />
          </mxGeometry>
        </mxCell>
        <mxCell id="q8i4rqkoNAQlJly2SuZi-188" value="measure" style="shape=table;startSize=30;container=1;collapsible=1;childLayout=tableLayout;fixedRows=1;rowLines=0;fontStyle=1;align=center;resizeLast=1;" vertex="1" parent="1">
          <mxGeometry x="870" y="157" width="180" height="220" as="geometry" />
        </mxCell>
        <mxCell id="q8i4rqkoNAQlJly2SuZi-189" value="" style="shape=partialRectangle;collapsible=0;dropTarget=0;pointerEvents=0;fillColor=none;top=0;left=0;bottom=1;right=0;points=[[0,0.5],[1,0.5]];portConstraint=eastwest;" vertex="1" parent="q8i4rqkoNAQlJly2SuZi-188">
          <mxGeometry y="30" width="180" height="30" as="geometry" />
        </mxCell>
        <mxCell id="q8i4rqkoNAQlJly2SuZi-190" value="PK" style="shape=partialRectangle;connectable=0;fillColor=none;top=0;left=0;bottom=0;right=0;fontStyle=1;overflow=hidden;" vertex="1" parent="q8i4rqkoNAQlJly2SuZi-189">
          <mxGeometry width="30" height="30" as="geometry" />
        </mxCell>
        <mxCell id="q8i4rqkoNAQlJly2SuZi-191" value="measure_id" style="shape=partialRectangle;connectable=0;fillColor=none;top=0;left=0;bottom=0;right=0;align=left;spacingLeft=6;fontStyle=5;overflow=hidden;" vertex="1" parent="q8i4rqkoNAQlJly2SuZi-189">
          <mxGeometry x="30" width="150" height="30" as="geometry" />
        </mxCell>
        <mxCell id="q8i4rqkoNAQlJly2SuZi-192" value="" style="shape=partialRectangle;collapsible=0;dropTarget=0;pointerEvents=0;fillColor=none;top=0;left=0;bottom=0;right=0;points=[[0,0.5],[1,0.5]];portConstraint=eastwest;" vertex="1" parent="q8i4rqkoNAQlJly2SuZi-188">
          <mxGeometry y="60" width="180" height="30" as="geometry" />
        </mxCell>
        <mxCell id="q8i4rqkoNAQlJly2SuZi-193" value="FK" style="shape=partialRectangle;connectable=0;fillColor=none;top=0;left=0;bottom=0;right=0;editable=1;overflow=hidden;" vertex="1" parent="q8i4rqkoNAQlJly2SuZi-192">
          <mxGeometry width="30" height="30" as="geometry" />
        </mxCell>
        <mxCell id="q8i4rqkoNAQlJly2SuZi-194" value="datacube_id" style="shape=partialRectangle;connectable=0;fillColor=none;top=0;left=0;bottom=0;right=0;align=left;spacingLeft=6;overflow=hidden;" vertex="1" parent="q8i4rqkoNAQlJly2SuZi-192">
          <mxGeometry x="30" width="150" height="30" as="geometry" />
        </mxCell>
        <mxCell id="q8i4rqkoNAQlJly2SuZi-195" value="" style="shape=partialRectangle;collapsible=0;dropTarget=0;pointerEvents=0;fillColor=none;top=0;left=0;bottom=0;right=0;points=[[0,0.5],[1,0.5]];portConstraint=eastwest;" vertex="1" parent="q8i4rqkoNAQlJly2SuZi-188">
          <mxGeometry y="90" width="180" height="30" as="geometry" />
        </mxCell>
        <mxCell id="q8i4rqkoNAQlJly2SuZi-196" value="FK" style="shape=partialRectangle;connectable=0;fillColor=none;top=0;left=0;bottom=0;right=0;editable=1;overflow=hidden;" vertex="1" parent="q8i4rqkoNAQlJly2SuZi-195">
          <mxGeometry width="30" height="30" as="geometry" />
        </mxCell>
        <mxCell id="q8i4rqkoNAQlJly2SuZi-197" value="dimension_id" style="shape=partialRectangle;connectable=0;fillColor=none;top=0;left=0;bottom=0;right=0;align=left;spacingLeft=6;overflow=hidden;" vertex="1" parent="q8i4rqkoNAQlJly2SuZi-195">
          <mxGeometry x="30" width="150" height="30" as="geometry" />
        </mxCell>
        <mxCell id="q8i4rqkoNAQlJly2SuZi-198" value="" style="shape=partialRectangle;collapsible=0;dropTarget=0;pointerEvents=0;fillColor=none;top=0;left=0;bottom=0;right=0;points=[[0,0.5],[1,0.5]];portConstraint=eastwest;" vertex="1" parent="q8i4rqkoNAQlJly2SuZi-188">
          <mxGeometry y="120" width="180" height="30" as="geometry" />
        </mxCell>
        <mxCell id="q8i4rqkoNAQlJly2SuZi-199" value="" style="shape=partialRectangle;connectable=0;fillColor=none;top=0;left=0;bottom=0;right=0;editable=1;overflow=hidden;" vertex="1" parent="q8i4rqkoNAQlJly2SuZi-198">
          <mxGeometry width="30" height="30" as="geometry" />
        </mxCell>
        <mxCell id="q8i4rqkoNAQlJly2SuZi-200" value="name" style="shape=partialRectangle;connectable=0;fillColor=none;top=0;left=0;bottom=0;right=0;align=left;spacingLeft=6;overflow=hidden;" vertex="1" parent="q8i4rqkoNAQlJly2SuZi-198">
          <mxGeometry x="30" width="150" height="30" as="geometry" />
        </mxCell>
        <mxCell id="q8i4rqkoNAQlJly2SuZi-229" value="" style="shape=partialRectangle;collapsible=0;dropTarget=0;pointerEvents=0;fillColor=none;top=0;left=0;bottom=0;right=0;points=[[0,0.5],[1,0.5]];portConstraint=eastwest;" vertex="1" parent="q8i4rqkoNAQlJly2SuZi-188">
          <mxGeometry y="150" width="180" height="30" as="geometry" />
        </mxCell>
        <mxCell id="q8i4rqkoNAQlJly2SuZi-230" value="" style="shape=partialRectangle;connectable=0;fillColor=none;top=0;left=0;bottom=0;right=0;editable=1;overflow=hidden;" vertex="1" parent="q8i4rqkoNAQlJly2SuZi-229">
          <mxGeometry width="30" height="30" as="geometry" />
        </mxCell>
        <mxCell id="q8i4rqkoNAQlJly2SuZi-231" value="description" style="shape=partialRectangle;connectable=0;fillColor=none;top=0;left=0;bottom=0;right=0;align=left;spacingLeft=6;overflow=hidden;" vertex="1" parent="q8i4rqkoNAQlJly2SuZi-229">
          <mxGeometry x="30" width="150" height="30" as="geometry" />
        </mxCell>
        <mxCell id="q8i4rqkoNAQlJly2SuZi-232" value="" style="shape=partialRectangle;collapsible=0;dropTarget=0;pointerEvents=0;fillColor=none;top=0;left=0;bottom=0;right=0;points=[[0,0.5],[1,0.5]];portConstraint=eastwest;" vertex="1" parent="q8i4rqkoNAQlJly2SuZi-188">
          <mxGeometry y="180" width="180" height="30" as="geometry" />
        </mxCell>
        <mxCell id="q8i4rqkoNAQlJly2SuZi-233" value="FK" style="shape=partialRectangle;connectable=0;fillColor=none;top=0;left=0;bottom=0;right=0;editable=1;overflow=hidden;" vertex="1" parent="q8i4rqkoNAQlJly2SuZi-232">
          <mxGeometry width="30" height="30" as="geometry" />
        </mxCell>
        <mxCell id="q8i4rqkoNAQlJly2SuZi-234" value="aggregation_id" style="shape=partialRectangle;connectable=0;fillColor=none;top=0;left=0;bottom=0;right=0;align=left;spacingLeft=6;overflow=hidden;" vertex="1" parent="q8i4rqkoNAQlJly2SuZi-232">
          <mxGeometry x="30" width="150" height="30" as="geometry" />
        </mxCell>
        <mxCell id="q8i4rqkoNAQlJly2SuZi-201" value="" style="endArrow=none;html=1;rounded=0;entryX=1;entryY=0.5;entryDx=0;entryDy=0;exitX=0;exitY=0.5;exitDx=0;exitDy=0;" edge="1" parent="1" source="q8i4rqkoNAQlJly2SuZi-192" target="q8i4rqkoNAQlJly2SuZi-108">
          <mxGeometry relative="1" as="geometry">
            <mxPoint x="900" y="227" as="sourcePoint" />
            <mxPoint x="750" y="227.99999999999977" as="targetPoint" />
          </mxGeometry>
        </mxCell>
        <mxCell id="q8i4rqkoNAQlJly2SuZi-206" value="*" style="text;strokeColor=none;fillColor=none;spacingLeft=4;spacingRight=4;overflow=hidden;rotatable=0;points=[[0,0.5],[1,0.5]];portConstraint=eastwest;fontSize=20;" vertex="1" parent="1">
          <mxGeometry x="560" y="-373" width="20" height="30" as="geometry" />
        </mxCell>
        <mxCell id="q8i4rqkoNAQlJly2SuZi-207" value="*" style="text;strokeColor=none;fillColor=none;spacingLeft=4;spacingRight=4;overflow=hidden;rotatable=0;points=[[0,0.5],[1,0.5]];portConstraint=eastwest;fontSize=20;" vertex="1" parent="1">
          <mxGeometry x="170" y="-373" width="20" height="30" as="geometry" />
        </mxCell>
        <mxCell id="q8i4rqkoNAQlJly2SuZi-208" value="*" style="text;strokeColor=none;fillColor=none;spacingLeft=4;spacingRight=4;overflow=hidden;rotatable=0;points=[[0,0.5],[1,0.5]];portConstraint=eastwest;fontSize=20;" vertex="1" parent="1">
          <mxGeometry y="128" width="20" height="30" as="geometry" />
        </mxCell>
        <mxCell id="q8i4rqkoNAQlJly2SuZi-209" value="*" style="text;strokeColor=none;fillColor=none;spacingLeft=4;spacingRight=4;overflow=hidden;rotatable=0;points=[[0,0.5],[1,0.5]];portConstraint=eastwest;fontSize=20;" vertex="1" parent="1">
          <mxGeometry x="90" y="207" width="20" height="30" as="geometry" />
        </mxCell>
        <mxCell id="q8i4rqkoNAQlJly2SuZi-210" value="*" style="text;strokeColor=none;fillColor=none;spacingLeft=4;spacingRight=4;overflow=hidden;rotatable=0;points=[[0,0.5],[1,0.5]];portConstraint=eastwest;fontSize=20;" vertex="1" parent="1">
          <mxGeometry x="290" y="127" width="20" height="30" as="geometry" />
        </mxCell>
        <mxCell id="q8i4rqkoNAQlJly2SuZi-211" value="*" style="text;strokeColor=none;fillColor=none;spacingLeft=4;spacingRight=4;overflow=hidden;rotatable=0;points=[[0,0.5],[1,0.5]];portConstraint=eastwest;fontSize=20;" vertex="1" parent="1">
          <mxGeometry x="620" y="38" width="20" height="30" as="geometry" />
        </mxCell>
        <mxCell id="q8i4rqkoNAQlJly2SuZi-212" value="*" style="text;strokeColor=none;fillColor=none;spacingLeft=4;spacingRight=4;overflow=hidden;rotatable=0;points=[[0,0.5],[1,0.5]];portConstraint=eastwest;fontSize=20;" vertex="1" parent="1">
          <mxGeometry x="720" y="-78" width="20" height="30" as="geometry" />
        </mxCell>
        <mxCell id="q8i4rqkoNAQlJly2SuZi-213" value="*" style="text;strokeColor=none;fillColor=none;spacingLeft=4;spacingRight=4;overflow=hidden;rotatable=0;points=[[0,0.5],[1,0.5]];portConstraint=eastwest;fontSize=20;" vertex="1" parent="1">
          <mxGeometry x="510" y="201" width="20" height="30" as="geometry" />
        </mxCell>
        <mxCell id="q8i4rqkoNAQlJly2SuZi-214" value="*" style="text;strokeColor=none;fillColor=none;spacingLeft=4;spacingRight=4;overflow=hidden;rotatable=0;points=[[0,0.5],[1,0.5]];portConstraint=eastwest;fontSize=20;" vertex="1" parent="1">
          <mxGeometry x="850" y="201" width="20" height="30" as="geometry" />
        </mxCell>
        <mxCell id="q8i4rqkoNAQlJly2SuZi-215" value="*" style="text;strokeColor=none;fillColor=none;spacingLeft=4;spacingRight=4;overflow=hidden;rotatable=0;points=[[0,0.5],[1,0.5]];portConstraint=eastwest;fontSize=20;" vertex="1" parent="1">
          <mxGeometry x="290" y="-260" width="20" height="30" as="geometry" />
        </mxCell>
        <mxCell id="q8i4rqkoNAQlJly2SuZi-236" value="" style="endArrow=none;html=1;rounded=0;entryX=1;entryY=0.5;entryDx=0;entryDy=0;exitX=0.25;exitY=0;exitDx=0;exitDy=0;" edge="1" parent="1" source="q8i4rqkoNAQlJly2SuZi-188" target="q8i4rqkoNAQlJly2SuZi-202">
          <mxGeometry relative="1" as="geometry">
            <mxPoint x="910" y="38" as="sourcePoint" />
            <mxPoint x="750" y="38" as="targetPoint" />
          </mxGeometry>
        </mxCell>
        <mxCell id="q8i4rqkoNAQlJly2SuZi-237" value="*" style="text;strokeColor=none;fillColor=none;spacingLeft=4;spacingRight=4;overflow=hidden;rotatable=0;points=[[0,0.5],[1,0.5]];portConstraint=eastwest;fontSize=20;" vertex="1" parent="1">
          <mxGeometry x="900" y="117" width="20" height="30" as="geometry" />
        </mxCell>
        <mxCell id="q8i4rqkoNAQlJly2SuZi-238" value="aggregation" style="shape=table;startSize=30;container=1;collapsible=1;childLayout=tableLayout;fixedRows=1;rowLines=0;fontStyle=1;align=center;resizeLast=1;" vertex="1" parent="1">
          <mxGeometry x="1220" y="174.5" width="180" height="95" as="geometry" />
        </mxCell>
        <mxCell id="q8i4rqkoNAQlJly2SuZi-239" value="" style="shape=partialRectangle;collapsible=0;dropTarget=0;pointerEvents=0;fillColor=none;top=0;left=0;bottom=1;right=0;points=[[0,0.5],[1,0.5]];portConstraint=eastwest;" vertex="1" parent="q8i4rqkoNAQlJly2SuZi-238">
          <mxGeometry y="30" width="180" height="30" as="geometry" />
        </mxCell>
        <mxCell id="q8i4rqkoNAQlJly2SuZi-240" value="PK" style="shape=partialRectangle;connectable=0;fillColor=none;top=0;left=0;bottom=0;right=0;fontStyle=1;overflow=hidden;" vertex="1" parent="q8i4rqkoNAQlJly2SuZi-239">
          <mxGeometry width="30" height="30" as="geometry" />
        </mxCell>
        <mxCell id="q8i4rqkoNAQlJly2SuZi-241" value="aggregation_id" style="shape=partialRectangle;connectable=0;fillColor=none;top=0;left=0;bottom=0;right=0;align=left;spacingLeft=6;fontStyle=5;overflow=hidden;" vertex="1" parent="q8i4rqkoNAQlJly2SuZi-239">
          <mxGeometry x="30" width="150" height="30" as="geometry" />
        </mxCell>
        <mxCell id="q8i4rqkoNAQlJly2SuZi-242" value="" style="shape=partialRectangle;collapsible=0;dropTarget=0;pointerEvents=0;fillColor=none;top=0;left=0;bottom=0;right=0;points=[[0,0.5],[1,0.5]];portConstraint=eastwest;" vertex="1" parent="q8i4rqkoNAQlJly2SuZi-238">
          <mxGeometry y="60" width="180" height="30" as="geometry" />
        </mxCell>
        <mxCell id="q8i4rqkoNAQlJly2SuZi-243" value="" style="shape=partialRectangle;connectable=0;fillColor=none;top=0;left=0;bottom=0;right=0;editable=1;overflow=hidden;" vertex="1" parent="q8i4rqkoNAQlJly2SuZi-242">
          <mxGeometry width="30" height="30" as="geometry" />
        </mxCell>
        <mxCell id="q8i4rqkoNAQlJly2SuZi-244" value="name" style="shape=partialRectangle;connectable=0;fillColor=none;top=0;left=0;bottom=0;right=0;align=left;spacingLeft=6;overflow=hidden;" vertex="1" parent="q8i4rqkoNAQlJly2SuZi-242">
          <mxGeometry x="30" width="150" height="30" as="geometry" />
        </mxCell>
        <mxCell id="q8i4rqkoNAQlJly2SuZi-245" value="" style="endArrow=none;html=1;rounded=0;entryX=1;entryY=0.5;entryDx=0;entryDy=0;exitX=0.006;exitY=-0.117;exitDx=0;exitDy=0;exitPerimeter=0;" edge="1" parent="1" source="q8i4rqkoNAQlJly2SuZi-242" target="q8i4rqkoNAQlJly2SuZi-192">
          <mxGeometry relative="1" as="geometry">
            <mxPoint x="1160" y="287" as="sourcePoint" />
            <mxPoint x="1075" y="231" as="targetPoint" />
          </mxGeometry>
        </mxCell>
        <mxCell id="q8i4rqkoNAQlJly2SuZi-246" value="*" style="text;strokeColor=none;fillColor=none;spacingLeft=4;spacingRight=4;overflow=hidden;rotatable=0;points=[[0,0.5],[1,0.5]];portConstraint=eastwest;fontSize=20;" vertex="1" parent="1">
          <mxGeometry x="1050" y="207" width="20" height="30" as="geometry" />
        </mxCell>
        <mxCell id="q8i4rqkoNAQlJly2SuZi-247" value="1" style="text;strokeColor=none;fillColor=none;spacingLeft=4;spacingRight=4;overflow=hidden;rotatable=0;points=[[0,0.5],[1,0.5]];portConstraint=eastwest;fontSize=13;" vertex="1" parent="1">
          <mxGeometry x="620" y="127" width="20" height="30" as="geometry" />
        </mxCell>
        <mxCell id="q8i4rqkoNAQlJly2SuZi-248" value="1" style="text;strokeColor=none;fillColor=none;spacingLeft=4;spacingRight=4;overflow=hidden;rotatable=0;points=[[0,0.5],[1,0.5]];portConstraint=eastwest;fontSize=13;" vertex="1" parent="1">
          <mxGeometry x="710" y="201" width="20" height="30" as="geometry" />
        </mxCell>
        <mxCell id="q8i4rqkoNAQlJly2SuZi-249" value="1" style="text;strokeColor=none;fillColor=none;spacingLeft=4;spacingRight=4;overflow=hidden;rotatable=0;points=[[0,0.5],[1,0.5]];portConstraint=eastwest;fontSize=13;" vertex="1" parent="1">
          <mxGeometry x="380" y="207" width="20" height="30" as="geometry" />
        </mxCell>
        <mxCell id="q8i4rqkoNAQlJly2SuZi-250" value="1" style="text;strokeColor=none;fillColor=none;spacingLeft=4;spacingRight=4;overflow=hidden;rotatable=0;points=[[0,0.5],[1,0.5]];portConstraint=eastwest;fontSize=13;" vertex="1" parent="1">
          <mxGeometry x="180" y="201" width="20" height="30" as="geometry" />
        </mxCell>
        <mxCell id="q8i4rqkoNAQlJly2SuZi-251" value="1" style="text;strokeColor=none;fillColor=none;spacingLeft=4;spacingRight=4;overflow=hidden;rotatable=0;points=[[0,0.5],[1,0.5]];portConstraint=eastwest;fontSize=13;" vertex="1" parent="1">
          <mxGeometry y="42" width="20" height="30" as="geometry" />
        </mxCell>
        <mxCell id="q8i4rqkoNAQlJly2SuZi-252" value="1" style="text;strokeColor=none;fillColor=none;spacingLeft=4;spacingRight=4;overflow=hidden;rotatable=0;points=[[0,0.5],[1,0.5]];portConstraint=eastwest;fontSize=13;" vertex="1" parent="1">
          <mxGeometry x="290" y="17" width="20" height="30" as="geometry" />
        </mxCell>
        <mxCell id="q8i4rqkoNAQlJly2SuZi-253" value="1" style="text;strokeColor=none;fillColor=none;spacingLeft=4;spacingRight=4;overflow=hidden;rotatable=0;points=[[0,0.5],[1,0.5]];portConstraint=eastwest;fontSize=13;" vertex="1" parent="1">
          <mxGeometry x="290" y="-173" width="20" height="30" as="geometry" />
        </mxCell>
        <mxCell id="q8i4rqkoNAQlJly2SuZi-254" value="1" style="text;strokeColor=none;fillColor=none;spacingLeft=4;spacingRight=4;overflow=hidden;rotatable=0;points=[[0,0.5],[1,0.5]];portConstraint=eastwest;fontSize=13;" vertex="1" parent="1">
          <mxGeometry x="90" y="-373" width="20" height="30" as="geometry" />
        </mxCell>
        <mxCell id="q8i4rqkoNAQlJly2SuZi-255" value="1" style="text;strokeColor=none;fillColor=none;spacingLeft=4;spacingRight=4;overflow=hidden;rotatable=0;points=[[0,0.5],[1,0.5]];portConstraint=eastwest;fontSize=13;" vertex="1" parent="1">
          <mxGeometry x="380" y="-373" width="20" height="30" as="geometry" />
        </mxCell>
        <mxCell id="q8i4rqkoNAQlJly2SuZi-256" value="1" style="text;strokeColor=none;fillColor=none;spacingLeft=4;spacingRight=4;overflow=hidden;rotatable=0;points=[[0,0.5],[1,0.5]];portConstraint=eastwest;fontSize=13;" vertex="1" parent="1">
          <mxGeometry x="850" y="-78" width="20" height="30" as="geometry" />
        </mxCell>
        <mxCell id="q8i4rqkoNAQlJly2SuZi-257" value="1" style="text;strokeColor=none;fillColor=none;spacingLeft=4;spacingRight=4;overflow=hidden;rotatable=0;points=[[0,0.5],[1,0.5]];portConstraint=eastwest;fontSize=13;" vertex="1" parent="1">
          <mxGeometry x="720" y="-13" width="20" height="30" as="geometry" />
        </mxCell>
        <mxCell id="q8i4rqkoNAQlJly2SuZi-258" value="1" style="text;strokeColor=none;fillColor=none;spacingLeft=4;spacingRight=4;overflow=hidden;rotatable=0;points=[[0,0.5],[1,0.5]];portConstraint=eastwest;fontSize=13;" vertex="1" parent="1">
          <mxGeometry x="1200" y="201" width="20" height="30" as="geometry" />
        </mxCell>
      </root>
    </mxGraphModel>
  </diagram>
</mxfile>
